<svg width="104" height="104" viewBox="0 0 104 104" fill="none" xmlns="http://www.w3.org/2000/svg">
<g clip-path="url(#clip0_54434_8)">
<path d="M102.444 64.575C95.4967 92.447 67.2579 109.39 39.4257 102.442C11.5529 95.4943 -5.39018 67.2567 1.55791 39.4249C8.5056 11.5529 36.7034 -5.39018 64.5762 1.55792C92.4084 8.46498 109.393 36.7026 102.444 64.575Z" fill="url(#paint0_linear_54434_8)"/>
<path d="M76.7589 45.5203C77.7745 38.6141 72.5339 34.8765 65.3026 32.3984L67.6589 23.0141L61.9714 21.5922L59.6964 30.7328C58.1932 30.3672 56.6495 30.0016 55.1057 29.6766L57.3807 20.4953L51.6932 19.0734L49.3776 28.4172C48.1182 28.1328 46.8995 27.8484 45.7214 27.564V27.5234L37.8401 25.5734L36.337 31.6672C36.337 31.6672 40.562 32.6422 40.4807 32.6828C42.7964 33.2515 43.2026 34.7953 43.1214 36.0141L40.4401 46.6984C40.6026 46.7391 40.8057 46.7797 41.0495 46.9016C40.8464 46.8609 40.6432 46.8203 40.4401 46.7391L36.7026 61.6891C36.4182 62.3797 35.687 63.4359 34.1026 63.0297C34.1432 63.1109 29.9589 62.014 29.9589 62.014L27.1151 68.5547L34.5495 70.4234C35.9307 70.7891 37.2714 71.1141 38.612 71.4797L36.2557 80.9453L41.9432 82.3672L44.2995 72.9828C45.8432 73.389 47.387 73.7953 48.8495 74.1609L46.5339 83.5047L52.2214 84.9266L54.5776 75.4609C64.3276 77.2891 71.6401 76.5578 74.687 67.7422C77.1651 60.6734 74.5651 56.5703 69.4464 53.889C73.2245 53.0359 76.0276 50.5578 76.7589 45.5203ZM63.7182 63.8016C61.9714 70.8703 50.0276 67.0515 46.1682 66.0765L49.2964 53.5234C53.1557 54.4984 65.587 56.4078 63.7182 63.8016ZM65.5057 45.3984C63.8807 51.8578 53.9682 48.5672 50.7589 47.7547L53.6026 36.3797C56.812 37.1922 67.1714 38.6953 65.5057 45.3984Z" fill="white"/>
</g>
<defs>
<linearGradient id="paint0_linear_54434_8" x1="5197.19" y1="-2.496" x2="5197.19" y2="10398.9" gradientUnits="userSpaceOnUse">
<stop stop-color="#F9AA4B"/>
<stop offset="1" stop-color="#F7931A"/>
</linearGradient>
<clipPath id="clip0_54434_8">
<rect width="104" height="104" fill="white"/>
</clipPath>
</defs>
</svg>
