<svg width="22" height="22" viewBox="0 0 22 22" fill="none" xmlns="http://www.w3.org/2000/svg">
<path d="M11 1.375C8.44729 1.375 5.99914 2.38906 4.1941 4.1941C2.38906 5.99913 1.375 8.44729 1.375 11C1.375 13.5527 2.38906 16.0009 4.1941 17.8059C5.99914 19.6109 8.44729 20.625 11 20.625C13.5527 20.625 16.0009 19.6109 17.8059 17.8059C19.6109 16.0009 20.625 13.5527 20.625 11C20.625 8.44729 19.6109 5.99913 17.8059 4.1941C16.0009 2.38906 13.5527 1.375 11 1.375ZM15.8125 11C15.8125 11.2188 15.7256 11.4286 15.5709 11.5834C15.4161 11.7381 15.2063 11.825 14.9875 11.825H7.0125C6.7937 11.825 6.58385 11.7381 6.42914 11.5834C6.27442 11.4286 6.1875 11.2188 6.1875 11C6.1875 10.7812 6.27442 10.5714 6.42914 10.4166C6.58385 10.2619 6.7937 10.175 7.0125 10.175H14.9875C15.0958 10.175 15.2031 10.1963 15.3032 10.2378C15.4033 10.2793 15.4943 10.34 15.5709 10.4166C15.6475 10.4932 15.7082 10.5842 15.7497 10.6843C15.7912 10.7844 15.8125 10.8917 15.8125 11Z" fill="#ee225d"/>
</svg>
