<svg width="96" height="96" viewBox="0 0 96 96" fill="none" xmlns="http://www.w3.org/2000/svg">
<path d="M48.0469 36.6188C45.2438 36.6188 42.6188 37.7063 40.6313 39.6938C38.6532 41.6813 37.5563 44.3063 37.5563 47.1094C37.5563 49.9125 38.6532 52.5375 40.6313 54.525C42.6188 56.5031 45.2438 57.6 48.0469 57.6C50.85 57.6 53.475 56.5031 55.4625 54.525C57.4407 52.5375 58.5375 49.9125 58.5375 47.1094C58.5375 44.3063 57.4407 41.6813 55.4625 39.6938C54.4918 38.7155 53.3363 37.94 52.0633 37.4121C50.7903 36.8842 49.425 36.6145 48.0469 36.6188ZM86.7 58.6969L80.5688 53.4563C80.8594 51.675 81.0094 49.8563 81.0094 48.0469C81.0094 46.2375 80.8594 44.4094 80.5688 42.6375L86.7 37.3969C87.1632 37.0004 87.4947 36.4723 87.6504 35.8828C87.8062 35.2933 87.7788 34.6704 87.5719 34.0969L87.4875 33.8531C85.8002 29.1346 83.2718 24.7608 80.025 20.9438L79.8563 20.7469C79.462 20.2833 78.9366 19.9501 78.3491 19.7911C77.7617 19.6321 77.1399 19.6548 76.5657 19.8563L68.9532 22.5656C66.1407 20.2594 63.0094 18.4406 59.6157 17.175L58.1438 9.21564C58.0327 8.61603 57.7419 8.06441 57.3099 7.63405C56.8778 7.2037 56.3251 6.91498 55.725 6.80626L55.4719 6.75939C50.5969 5.87814 45.4594 5.87814 40.5844 6.75939L40.3313 6.80626C39.7313 6.91498 39.1785 7.2037 38.7465 7.63405C38.3145 8.06441 38.0236 8.61603 37.9125 9.21564L36.4313 17.2125C33.0697 18.4882 29.9381 20.3026 27.1594 22.5844L19.4907 19.8563C18.9166 19.6532 18.2943 19.6297 17.7066 19.7888C17.1188 19.9478 16.5933 20.282 16.2 20.7469L16.0313 20.9438C12.7903 24.7649 10.2626 29.1376 8.5688 33.8531L8.48442 34.0969C8.06255 35.2688 8.40942 36.5813 9.3563 37.3969L15.5625 42.6938C15.2719 44.4563 15.1313 46.2563 15.1313 48.0375C15.1313 49.8375 15.2719 51.6375 15.5625 53.3813L9.37505 58.6781C8.91188 59.0746 8.58039 59.6027 8.42464 60.1922C8.2689 60.7817 8.29629 61.4046 8.50317 61.9781L8.58755 62.2219C10.2844 66.9375 12.7875 71.2969 16.05 75.1313L16.2188 75.3281C16.6131 75.7917 17.1385 76.125 17.7259 76.2839C18.3134 76.4429 18.9352 76.4202 19.5094 76.2188L27.1782 73.4906C29.9719 75.7875 33.0844 77.6063 36.45 78.8625L37.9313 86.8594C38.0423 87.459 38.3332 88.0106 38.7652 88.441C39.1973 88.8713 39.75 89.1601 40.35 89.2688L40.6032 89.3156C45.5261 90.2016 50.5677 90.2016 55.4907 89.3156L55.7438 89.2688C56.3438 89.1601 56.8966 88.8713 57.3286 88.441C57.7606 88.0106 58.0515 87.459 58.1625 86.8594L59.6344 78.9C63.0282 77.625 66.1594 75.8156 68.9719 73.5094L76.5844 76.2188C77.1585 76.4218 77.7808 76.4454 78.3685 76.2863C78.9563 76.1272 79.4817 75.793 79.875 75.3281L80.0438 75.1313C83.3063 71.2781 85.8094 66.9375 87.5063 62.2219L87.5907 61.9781C87.9938 60.8156 87.6469 59.5125 86.7 58.6969ZM48.0469 63.5906C38.9438 63.5906 31.5657 56.2125 31.5657 47.1094C31.5657 38.0063 38.9438 30.6281 48.0469 30.6281C57.15 30.6281 64.5282 38.0063 64.5282 47.1094C64.5282 56.2125 57.15 63.5906 48.0469 63.5906Z" fill="#aeb8c4"/>
</svg>
