<svg width="105" height="105" viewBox="0 0 105 105" fill="none" xmlns="http://www.w3.org/2000/svg">
<path d="M88.5938 29.5312H22.9688C22.0985 29.5312 21.2639 29.1855 20.6486 28.5702C20.0332 27.9548 19.6875 27.1202 19.6875 26.25C19.6875 25.3798 20.0332 24.5452 20.6486 23.9298C21.2639 23.3145 22.0985 22.9687 22.9688 22.9688H78.75C79.6202 22.9688 80.4548 22.623 81.0702 22.0077C81.6856 21.3923 82.0312 20.5577 82.0312 19.6875C82.0312 18.8173 81.6856 17.9827 81.0702 17.3673C80.4548 16.752 79.6202 16.4062 78.75 16.4062H22.9688C20.358 16.4062 17.8542 17.4434 16.0082 19.2894C14.1621 21.1355 13.125 23.6393 13.125 26.25V78.75C13.125 81.3607 14.1621 83.8645 16.0082 85.7106C17.8542 87.5566 20.358 88.5937 22.9688 88.5938H88.5938C90.3342 88.5938 92.0034 87.9023 93.2341 86.6716C94.4648 85.4409 95.1562 83.7717 95.1562 82.0312V36.0938C95.1562 34.3533 94.4648 32.6841 93.2341 31.4534C92.0034 30.2227 90.3342 29.5312 88.5938 29.5312ZM73.8281 62.3438C72.8547 62.3438 71.9031 62.0551 71.0937 61.5143C70.2843 60.9734 69.6534 60.2047 69.2809 59.3054C68.9084 58.406 68.8109 57.4164 69.0008 56.4617C69.1907 55.5069 69.6595 54.6299 70.3478 53.9416C71.0362 53.2532 71.9132 52.7845 72.8679 52.5946C73.8227 52.4047 74.8123 52.5021 75.7116 52.8747C76.611 53.2472 77.3797 53.878 77.9205 54.6874C78.4613 55.4968 78.75 56.4484 78.75 57.4219C78.75 58.7272 78.2314 59.9791 77.3084 60.9022C76.3854 61.8252 75.1335 62.3438 73.8281 62.3438Z" fill="#4c5968"/>
</svg>
