<svg width="24" height="24" viewBox="0 0 24 24" fill="none" xmlns="http://www.w3.org/2000/svg">
<g clip-path="url(#clip0_54434_15)">
<path d="M8.10995 13.768L11.646 17.303C11.7397 17.3967 11.8669 17.4494 11.9995 17.4494C12.132 17.4494 12.2592 17.3967 12.353 17.303L15.889 13.768C15.9827 13.6743 16.1099 13.6216 16.2425 13.6216C16.375 13.6216 16.5022 13.6743 16.596 13.768L18.152 15.323C18.2457 15.4168 18.2983 15.5439 18.2983 15.6765C18.2983 15.8091 18.2457 15.9362 18.152 16.03L12.353 21.829C12.2592 21.9227 12.132 21.9754 11.9995 21.9754C11.8669 21.9754 11.7397 21.9227 11.646 21.829L5.84795 16.03C5.75422 15.9362 5.70156 15.8091 5.70156 15.6765C5.70156 15.5439 5.75422 15.4168 5.84795 15.323L7.40395 13.768C7.49772 13.6743 7.62487 13.6216 7.75745 13.6216C7.89004 13.6216 8.01719 13.6743 8.11095 13.768H8.10995ZM20.204 10.033L20.273 10.091L21.829 11.646C21.9118 11.7287 21.963 11.8379 21.9736 11.9545C21.9841 12.0711 21.9535 12.1877 21.887 12.284L21.829 12.354L20.273 13.909C20.1902 13.9918 20.081 14.043 19.9645 14.0536C19.8479 14.0642 19.7313 14.0335 19.635 13.967L19.566 13.909L18.01 12.353C17.9275 12.2702 17.8767 12.1612 17.8663 12.0448C17.8559 11.9284 17.8865 11.8121 17.953 11.716L18.01 11.646L19.566 10.091C19.6381 10.0188 19.7307 9.97043 19.8311 9.95238C19.9316 9.93432 20.0352 9.94745 20.128 9.98999L20.204 10.033ZM4.43395 10.091L5.98995 11.646C6.08369 11.7398 6.13635 11.8669 6.13635 11.9995C6.13635 12.1321 6.08369 12.2592 5.98995 12.353L4.43395 13.91C4.34019 14.0037 4.21304 14.0564 4.08045 14.0564C3.94787 14.0564 3.82072 14.0037 3.72695 13.91L2.16995 12.353C2.07622 12.2592 2.02356 12.1321 2.02356 11.9995C2.02356 11.8669 2.07622 11.7398 2.16995 11.646L3.72595 10.091C3.81972 9.99725 3.94687 9.9446 4.07945 9.9446C4.21204 9.9446 4.34019 9.99725 4.43395 10.091ZM12.284 10.033L12.354 10.091L13.909 11.646C13.9918 11.7287 14.043 11.8379 14.0536 11.9545C14.0641 12.0711 14.0335 12.1877 13.967 12.284L13.909 12.354L12.354 13.909C12.2712 13.9918 12.162 14.043 12.0455 14.0536C11.9289 14.0642 11.8123 14.0335 11.716 13.967L11.646 13.909L10.091 12.353C10.0084 12.2703 9.95736 12.1613 9.94677 12.045C9.93617 11.9286 9.96667 11.8122 10.033 11.716L10.091 11.646L11.646 10.091C11.7181 10.0188 11.8107 9.97043 11.9111 9.95238C12.0116 9.93432 12.1152 9.94745 12.208 9.98999L12.284 10.033ZM12.354 2.17099L18.152 7.96899C18.2457 8.06275 18.2983 8.18991 18.2983 8.32249C18.2983 8.45507 18.2457 8.58223 18.152 8.67599L16.596 10.232C16.5022 10.3257 16.375 10.3784 16.2425 10.3784C16.1099 10.3784 15.9827 10.3257 15.889 10.232L12.354 6.69699C12.3075 6.65043 12.2523 6.61348 12.1916 6.58828C12.1308 6.56307 12.0657 6.5501 12 6.5501C11.9342 6.5501 11.8691 6.56307 11.8083 6.58828C11.7476 6.61348 11.6924 6.65043 11.646 6.69699L8.11095 10.232C8.01719 10.3257 7.89004 10.3784 7.75745 10.3784C7.62487 10.3784 7.49772 10.3257 7.40395 10.232L5.84795 8.67599C5.75422 8.58223 5.70156 8.45507 5.70156 8.32249C5.70156 8.18991 5.75422 8.06275 5.84795 7.96899L11.646 2.17099C11.7397 2.07725 11.8669 2.0246 11.9995 2.0246C12.132 2.0246 12.2602 2.07725 12.354 2.17099Z" fill="#E6B02C"/>
</g>
<defs>
<clipPath id="clip0_54434_15">
<rect width="24" height="24" fill="white"/>
</clipPath>
</defs>
</svg>
