<svg width="102" height="102" viewBox="0 0 102 102" fill="none" xmlns="http://www.w3.org/2000/svg">
<path d="M51 55.7812C53.6406 55.7812 55.7812 53.6406 55.7812 51C55.7812 48.3594 53.6406 46.2188 51 46.2188C48.3594 46.2188 46.2188 48.3594 46.2188 51C46.2188 53.6406 48.3594 55.7812 51 55.7812Z" fill="#aeb8c4"/>
<path d="M51 9.5625C28.1516 9.5625 9.5625 28.1516 9.5625 51C9.5625 73.8484 28.1516 92.4375 51 92.4375C73.8484 92.4375 92.4375 73.8484 92.4375 51C92.4375 28.1516 73.8484 9.5625 51 9.5625ZM60.5625 60.5625L28.6875 73.3125L41.4375 41.4375L73.3125 28.6875L60.5625 60.5625Z" fill="#aeb8c4"/>
</svg>
